<svg width="512" height="512" viewBox="0 0 512 512" fill="none" xmlns="http://www.w3.org/2000/svg">
  <path d="M326.8 196.6L275.6 196.6L296.1 94.1C297.9 85.1 291.1 76.8 281.9 76.8C277.6 76.8 273.5 78.6 270.6 81.8L168.2 192.7C162.3 199.1 162.3 209 168.2 215.4C171.3 218.8 175.7 220.7 180.3 220.7L231.5 220.7L211 323.2C209.2 332.2 216 340.5 225.2 340.5C229.5 340.5 233.6 338.7 236.5 335.5L338.9 224.6C344.8 218.2 344.8 208.3 338.9 201.9C335.8 198.5 331.4 196.6 326.8 196.6Z" fill="white" stroke="white" stroke-width="20" stroke-linecap="round" stroke-linejoin="round"/>
</svg>
